<svg width="24" height="24" viewBox="0 0 24 24" fill="none" xmlns="http://www.w3.org/2000/svg">
<path fill-rule="evenodd" clip-rule="evenodd" d="M1.75 8.01909C1.75 7.60487 2.08579 7.26909 2.5 7.26909L10.0916 7.26909L10.1856 7.2646C10.5658 7.24658 10.7817 7.23635 10.9784 7.15485C11.2068 7.06024 11.4021 6.90003 11.5394 6.69446C11.6768 6.4889 11.7501 6.24723 11.7501 6C11.7501 5.75278 11.6768 5.5111 11.5394 5.30554C11.4021 5.09998 11.2068 4.93976 10.9784 4.84515C10.75 4.75054 10.4987 4.72579 10.2562 4.77402C10.0137 4.82225 9.79102 4.9413 9.6162 5.11612C9.32331 5.40901 8.84844 5.40901 8.55554 5.11612C8.26265 4.82322 8.26265 4.34835 8.55554 4.05546C8.94014 3.67086 9.43014 3.40895 9.96359 3.30284C10.497 3.19673 11.05 3.25119 11.5525 3.45933C12.055 3.66747 12.4845 4.01995 12.7866 4.47218C13.0888 4.92442 13.2501 5.4561 13.2501 6C13.2501 6.5439 13.0888 7.07558 12.7866 7.52782C12.4845 7.98005 12.055 8.33253 11.5525 8.54067C11.0947 8.73029 10.6005 8.74987 10.2654 8.76314C10.2231 8.76482 10.1834 8.76639 10.1466 8.7682L10.1283 8.76909H10.1099L2.5 8.76909C2.08579 8.76909 1.75 8.4333 1.75 8.01909ZM1.75 12.0002C1.74987 11.586 2.08555 11.2501 2.49976 11.25L19.1366 11.2447C19.474 11.2182 19.7966 11.0946 20.0653 10.8884C20.3399 10.6777 20.5459 10.3903 20.6571 10.0625C20.7684 9.73478 20.7799 9.3814 20.6904 9.04707C20.6008 8.71275 20.4141 8.4125 20.1538 8.18429C19.8936 7.95608 19.5716 7.81015 19.2284 7.76498C18.8852 7.7198 18.5364 7.77739 18.226 7.93048C17.9156 8.08356 17.6575 8.32526 17.4844 8.62501C17.2773 8.98372 16.8186 9.10663 16.4599 8.89952C16.1012 8.69242 15.9783 8.23372 16.1854 7.87501C16.5068 7.31833 16.986 6.86947 17.5625 6.58517C18.139 6.30087 18.7869 6.19391 19.4242 6.27781C20.0615 6.36171 20.6596 6.63271 21.1429 7.05653C21.6261 7.48035 21.9729 8.03796 22.1392 8.65884C22.3056 9.27973 22.2841 9.93601 22.0775 10.5447C21.8709 11.1534 21.4884 11.6871 20.9785 12.0784C20.4685 12.4697 19.854 12.701 19.2125 12.743L19.1882 12.7446L19.1637 12.7447L2.50024 12.75C2.08603 12.7501 1.75013 12.4144 1.75 12.0002ZM2.50007 16.75C2.08586 16.75 1.75007 16.4142 1.75007 16C1.75007 15.5858 2.08586 15.25 2.50007 15.25L13.11 15.25H13.1283L13.1467 15.2509C13.1835 15.2527 13.2232 15.2543 13.2655 15.256C13.6005 15.2692 14.0947 15.2888 14.5525 15.4784C15.055 15.6866 15.4845 16.039 15.7867 16.4913C16.0889 16.9435 16.2502 17.4752 16.2502 18.0191C16.2502 18.563 16.0889 19.0947 15.7867 19.5469C15.4845 19.9992 15.055 20.3516 14.5525 20.5598C14.05 20.7679 13.4971 20.8224 12.9637 20.7163C12.4302 20.6102 11.9402 20.3482 11.5556 19.9636C11.2627 19.6707 11.2627 19.1959 11.5556 18.903C11.8485 18.6101 12.3234 18.6101 12.6163 18.903C12.7911 19.0778 13.0138 19.1969 13.2563 19.2451C13.4988 19.2933 13.7501 19.2686 13.9785 19.1739C14.2069 19.0793 14.4021 18.9191 14.5395 18.7136C14.6768 18.508 14.7502 18.2663 14.7502 18.0191C14.7502 17.7719 14.6768 17.5302 14.5395 17.3246C14.4021 17.1191 14.2069 16.9589 13.9785 16.8643C13.7818 16.7828 13.5659 16.7725 13.1857 16.7545L13.0917 16.75L2.50007 16.75Z" fill="black"/>
</svg>
