<svg width="24" height="24" viewBox="0 0 24 24" fill="none" xmlns="http://www.w3.org/2000/svg">
<path fill-rule="evenodd" clip-rule="evenodd" d="M9.53518 2.25C8.95007 2.25 8.40366 2.54243 8.0791 3.02927L6.59861 5.25H4C2.48122 5.25 1.25 6.48122 1.25 8V19C1.25 20.5188 2.48122 21.75 4 21.75H20C21.5188 21.75 22.75 20.5188 22.75 19V8C22.75 6.48122 21.5188 5.25 20 5.25H17.4014L15.9209 3.02927C15.5963 2.54243 15.0499 2.25 14.4648 2.25H9.53518ZM9.32717 3.86133C9.37354 3.79178 9.4516 3.75 9.53518 3.75H14.4648C14.5484 3.75 14.6265 3.79178 14.6728 3.86133L16.376 6.41603C16.5151 6.62467 16.7492 6.75 17 6.75H20C20.6904 6.75 21.25 7.30964 21.25 8V19C21.25 19.6904 20.6904 20.25 20 20.25H4C3.30964 20.25 2.75 19.6904 2.75 19V8C2.75 7.30964 3.30964 6.75 4 6.75H7C7.25076 6.75 7.48494 6.62467 7.62404 6.41603L9.32717 3.86133ZM8.75 13C8.75 11.2051 10.2051 9.75 12 9.75C13.7949 9.75 15.25 11.2051 15.25 13C15.25 14.7949 13.7949 16.25 12 16.25C10.2051 16.25 8.75 14.7949 8.75 13ZM12 8.25C9.37665 8.25 7.25 10.3766 7.25 13C7.25 15.6234 9.37665 17.75 12 17.75C14.6234 17.75 16.75 15.6234 16.75 13C16.75 10.3766 14.6234 8.25 12 8.25Z" fill="black"/>
</svg>
