<svg width="24" height="24" viewBox="0 0 24 24" fill="none" xmlns="http://www.w3.org/2000/svg">
<g clip-path="url(#clip0_677_477)">
<path d="M21 14.5H18.5C17.1193 14.5 16 15.6193 16 17V18.5C16 19.8807 17.1193 21 18.5 21V21C19.8807 21 21 19.8807 21 18.5V12C21 7.02944 16.9706 3 12 3V3C7.02944 3 3 7.02944 3 12V14.5M3 14.5V18.5C3 19.8807 4.11929 21 5.5 21V21C6.88071 21 8 19.8807 8 18.5V17C8 15.6193 6.88071 14.5 5.5 14.5H3Z" stroke="black" stroke-width="1.5" stroke-linecap="round" stroke-linejoin="round"/>
</g>
<defs>
<clipPath id="clip0_677_477">
<rect width="24" height="24" fill="white"/>
</clipPath>
</defs>
</svg>
