<svg width="24" height="24" viewBox="0 0 24 24" fill="none" xmlns="http://www.w3.org/2000/svg">
<path fill-rule="evenodd" clip-rule="evenodd" d="M21.75 5C21.75 3.48122 20.5188 2.25 19 2.25H5C3.48122 2.25 2.25 3.48122 2.25 5V18V19C2.25 20.5188 3.48122 21.75 5 21.75H18H19C20.5188 21.75 21.75 20.5188 21.75 19V5ZM16.1893 20.25H5C4.30964 20.25 3.75 19.6904 3.75 19V18.3107L9 13.0607L16.1893 20.25ZM3.75 16.1893L8.46967 11.4697C8.76256 11.1768 9.23744 11.1768 9.53033 11.4697L18.3107 20.25H19C19.6904 20.25 20.25 19.6904 20.25 19V5C20.25 4.30964 19.6904 3.75 19 3.75H5C4.30964 3.75 3.75 4.30964 3.75 5V16.1893ZM14.75 7.75C15.5784 7.75 16.25 8.42157 16.25 9.25C16.25 10.0784 15.5784 10.75 14.75 10.75C13.9216 10.75 13.25 10.0784 13.25 9.25C13.25 8.42157 13.9216 7.75 14.75 7.75ZM17.75 9.25C17.75 7.59315 16.4069 6.25 14.75 6.25C13.0931 6.25 11.75 7.59315 11.75 9.25C11.75 10.9069 13.0931 12.25 14.75 12.25C16.4069 12.25 17.75 10.9069 17.75 9.25Z" fill="black"/>
</svg>
