<svg width="24" height="24" viewBox="0 0 24 24" fill="none" xmlns="http://www.w3.org/2000/svg">
<path fill-rule="evenodd" clip-rule="evenodd" d="M7.25006 6C7.25006 3.37665 9.37671 1.25 12.0001 1.25C14.6234 1.25 16.7501 3.37665 16.7501 6V10C16.7501 12.6234 14.6234 14.75 12.0001 14.75C9.37671 14.75 7.25006 12.6234 7.25006 10V6ZM12.0001 2.75C10.2051 2.75 8.75006 4.20507 8.75006 6V10C8.75006 11.7949 10.2051 13.25 12.0001 13.25C13.795 13.25 15.2501 11.7949 15.2501 10V6C15.2501 4.20507 13.795 2.75 12.0001 2.75ZM4.06519 11.2737C4.46633 11.1704 4.87522 11.4119 4.97846 11.8131C5.78333 14.9402 8.62292 17.25 12.0001 17.25C15.3773 17.25 18.2169 14.9402 19.0217 11.8131C19.125 11.4119 19.5339 11.1704 19.935 11.2737C20.3361 11.3769 20.5776 11.7858 20.4744 12.1869C19.5633 15.7269 16.4932 18.4006 12.7501 18.7183V22C12.7501 22.4142 12.4143 22.75 12.0001 22.75C11.5858 22.75 11.2501 22.4142 11.2501 22V18.7183C7.50697 18.4006 4.43693 15.7269 3.52581 12.1869C3.42256 11.7858 3.66405 11.3769 4.06519 11.2737Z" fill="black"/>
</svg>
