<svg width="24" height="24" viewBox="0 0 24 24" fill="none" xmlns="http://www.w3.org/2000/svg">
<path fill-rule="evenodd" clip-rule="evenodd" d="M20.9848 2.42774C21.153 2.57024 21.25 2.77954 21.25 3.00001V16C21.25 18.0711 19.5711 19.75 17.5 19.75C15.4289 19.75 13.75 18.0711 13.75 16C13.75 13.9289 15.4289 12.25 17.5 12.25C18.3442 12.25 19.1233 12.529 19.75 12.9997V3.88535L9.25 5.63535V18C9.25 20.0711 7.57107 21.75 5.5 21.75C3.42893 21.75 1.75 20.0711 1.75 18C1.75 15.9289 3.42893 14.25 5.5 14.25C6.3442 14.25 7.12325 14.529 7.75 14.9997V5.00001C7.75 4.63338 8.01506 4.32048 8.3767 4.26021L20.3767 2.26021C20.5942 2.22397 20.8166 2.28524 20.9848 2.42774ZM19.75 16C19.75 14.7574 18.7426 13.75 17.5 13.75C16.2574 13.75 15.25 14.7574 15.25 16C15.25 17.2426 16.2574 18.25 17.5 18.25C18.7426 18.25 19.75 17.2426 19.75 16ZM5.5 15.75C6.74264 15.75 7.75 16.7574 7.75 18C7.75 19.2426 6.74264 20.25 5.5 20.25C4.25736 20.25 3.25 19.2426 3.25 18C3.25 16.7574 4.25736 15.75 5.5 15.75Z" fill="black"/>
</svg>
