<svg width="24" height="24" viewBox="0 0 24 24" fill="none" xmlns="http://www.w3.org/2000/svg">
<path fill-rule="evenodd" clip-rule="evenodd" d="M2.75 12C2.75 6.89137 6.89137 2.75 12 2.75C17.1086 2.75 21.25 6.89137 21.25 12C21.25 17.1086 17.1086 21.25 12 21.25C6.89137 21.25 2.75 17.1086 2.75 12ZM12 1.25C6.06294 1.25 1.25 6.06294 1.25 12C1.25 17.9371 6.06294 22.75 12 22.75C17.9371 22.75 22.75 17.9371 22.75 12C22.75 6.06294 17.9371 1.25 12 1.25ZM10.9326 16.8653L16.3063 13.4808C17.3961 12.7944 17.3961 11.2056 16.3063 10.5192L10.9326 7.13473C9.76729 6.40075 8.25 7.23826 8.25 8.6155L8.25 15.3845C8.25 16.7617 9.76729 17.5993 10.9326 16.8653ZM15.5068 11.7885C15.6625 11.8865 15.6625 12.1135 15.5068 12.2115L10.1332 15.596C9.96676 15.7009 9.75 15.5812 9.75 15.3845V8.6155C9.75 8.41875 9.96676 8.29911 10.1332 8.40396L15.5068 11.7885Z" fill="black"/>
</svg>
