<svg width="24" height="24" viewBox="0 0 24 24" fill="none" xmlns="http://www.w3.org/2000/svg">
<path fill-rule="evenodd" clip-rule="evenodd" d="M2.75 7C2.75 6.30964 3.30964 5.75 4 5.75H14C14.6904 5.75 15.25 6.30964 15.25 7V9.98718C15.2498 9.99619 15.2498 10.0052 15.25 10.0142V13.9858C15.2498 13.9948 15.2498 14.0038 15.25 14.0128V17C15.25 17.6904 14.6904 18.25 14 18.25H4C3.30964 18.25 2.75 17.6904 2.75 17V7ZM16.75 15.3058V17C16.75 18.5188 15.5188 19.75 14 19.75H4C2.48122 19.75 1.25 18.5188 1.25 17V7C1.25 5.48122 2.48122 4.25 4 4.25H14C15.5188 4.25 16.75 5.48122 16.75 7V8.69422L20.1182 6.72942C21.2849 6.04888 22.75 6.89041 22.75 8.24104V15.759C22.75 17.1096 21.2849 17.9511 20.1182 17.2706L16.75 15.3058ZM16.75 13.5692L20.874 15.9749C21.0407 16.0721 21.25 15.9519 21.25 15.759V8.24104C21.25 8.04809 21.0407 7.92787 20.874 8.02509L16.75 10.4308V13.5692Z" fill="black"/>
<path d="M6 9.5H9" stroke="black" stroke-width="1.5" stroke-linecap="round" stroke-linejoin="round"/>
</svg>
