<svg width="24" height="24" viewBox="0 0 24 24" fill="none" xmlns="http://www.w3.org/2000/svg">
<path fill-rule="evenodd" clip-rule="evenodd" d="M6.50679 9.55288L11.25 5.20494V18.7951L6.50679 14.4471C6.36847 14.3203 6.18764 14.25 6 14.25H3.25V9.75001H6C6.18764 9.75001 6.36847 9.67967 6.50679 9.55288ZM12.75 4.06832C12.75 3.19821 11.7157 2.74322 11.0743 3.33116L5.70826 8.25001H3C2.30964 8.25001 1.75 8.80965 1.75 9.50001V14.5C1.75 15.1904 2.30964 15.75 3 15.75H5.70826L11.0743 20.6689C11.7157 21.2568 12.75 20.8018 12.75 19.9317V4.06832ZM17.0659 7.93416C16.773 7.64126 16.2981 7.64126 16.0052 7.93416C15.7123 8.22705 15.7123 8.70192 16.0052 8.99482C16.3999 9.38947 16.7129 9.85798 16.9265 10.3736C17.1401 10.8893 17.25 11.4419 17.25 12C17.25 12.5581 17.1401 13.1108 16.9265 13.6264C16.7129 14.1421 16.3999 14.6106 16.0052 15.0052C15.7123 15.2981 15.7123 15.773 16.0052 16.0659C16.2981 16.3588 16.773 16.3588 17.0659 16.0659C17.5998 15.5319 18.0233 14.8981 18.3123 14.2005C18.6013 13.5028 18.75 12.7551 18.75 12C18.75 11.2449 18.6013 10.4972 18.3123 9.79959C18.0233 9.10197 17.5998 8.46809 17.0659 7.93416Z" fill="black"/>
</svg>
