<svg width="24" height="24" viewBox="0 0 24 24" fill="none" xmlns="http://www.w3.org/2000/svg">
<path fill-rule="evenodd" clip-rule="evenodd" d="M6.50679 9.55287L11.25 5.20493V18.7951L6.50679 14.4471C6.36847 14.3203 6.18764 14.25 6 14.25H3.25V9.75H6C6.18764 9.75 6.36847 9.67966 6.50679 9.55287ZM12.75 4.63662C12.75 3.54899 11.4571 2.98024 10.6553 3.71518L5.70826 8.25H3C2.30964 8.25 1.75 8.80965 1.75 9.5V14.5C1.75 15.1904 2.30964 15.75 3 15.75H5.70826L10.6553 20.2848C11.4571 21.0198 12.75 20.451 12.75 19.3634V4.63662ZM16.7803 8.71967C16.4874 8.42678 16.0126 8.42678 15.7197 8.71967C15.4268 9.01257 15.4268 9.48744 15.7197 9.78033L17.9393 12L15.7197 14.2197C15.4268 14.5126 15.4268 14.9874 15.7197 15.2803C16.0126 15.5732 16.4874 15.5732 16.7803 15.2803L19 13.0607L21.2197 15.2803C21.5126 15.5732 21.9874 15.5732 22.2803 15.2803C22.5732 14.9874 22.5732 14.5126 22.2803 14.2197L20.0607 12L22.2803 9.78033C22.5732 9.48744 22.5732 9.01257 22.2803 8.71967C21.9874 8.42678 21.5126 8.42678 21.2197 8.71967L19 10.9393L16.7803 8.71967Z" fill="black"/>
</svg>
