<svg width="24" height="24" viewBox="0 0 24 24" fill="none" xmlns="http://www.w3.org/2000/svg">
<path fill-rule="evenodd" clip-rule="evenodd" d="M11.25 5.20494L6.50679 9.55288C6.36847 9.67967 6.18764 9.75001 6 9.75001H3.25V14.25H6C6.18764 14.25 6.36847 14.3203 6.50679 14.4471L11.25 18.7951V5.20494ZM10.6553 3.71518C11.4571 2.98025 12.75 3.549 12.75 4.63663V19.3634C12.75 20.451 11.4571 21.0198 10.6553 20.2848L5.70826 15.75H3C2.30964 15.75 1.75 15.1904 1.75 14.5V9.50001C1.75 8.80965 2.30964 8.25001 3 8.25001H5.70826L10.6553 3.71518ZM18.9697 5.46962C19.2626 5.17673 19.7374 5.17673 20.0303 5.46962C20.8854 6.32472 21.5687 7.32264 22.0355 8.44978C22.5004 9.57204 22.7397 10.7749 22.7397 11.9896C22.7397 13.2043 22.5004 14.4072 22.0355 15.5294C21.5707 16.6517 20.8892 17.6714 20.0303 18.5303C19.7374 18.8232 19.2626 18.8232 18.9697 18.5303C18.6768 18.2374 18.6768 17.7625 18.9697 17.4696C19.6894 16.7499 20.2603 15.8956 20.6497 14.9554C21.0392 14.0151 21.2397 13.0073 21.2397 11.9896C21.2397 10.9719 21.0392 9.96408 20.6497 9.02381C20.2623 8.08842 19.6932 7.25377 18.9697 6.53028C18.6768 6.23739 18.6768 5.76251 18.9697 5.46962ZM17.0659 7.93416C16.773 7.64126 16.2981 7.64126 16.0052 7.93416C15.7123 8.22705 15.7123 8.70192 16.0052 8.99482C16.3999 9.38947 16.7129 9.85798 16.9265 10.3736C17.1401 10.8893 17.25 11.4419 17.25 12C17.25 12.5581 17.1401 13.1108 16.9265 13.6264C16.7129 14.1421 16.3999 14.6106 16.0052 15.0052C15.7123 15.2981 15.7123 15.773 16.0052 16.0659C16.2981 16.3588 16.773 16.3588 17.0659 16.0659C17.5998 15.5319 18.0233 14.8981 18.3123 14.2005C18.6013 13.5028 18.75 12.7551 18.75 12C18.75 11.2449 18.6013 10.4972 18.3123 9.79959C18.0233 9.10197 17.5998 8.46809 17.0659 7.93416Z" fill="black"/>
</svg>
