<svg width="24" height="24" viewBox="0 0 24 24" fill="none" xmlns="http://www.w3.org/2000/svg">
<path fill-rule="evenodd" clip-rule="evenodd" d="M11 3.75C10.3096 3.75 9.75 4.30964 9.75 5V8C9.75 8.41421 9.41421 8.75 9 8.75H5.35206C4.69889 8.75 4.15584 9.25288 4.10574 9.90413L3.92529 12.25H20.0747L19.8943 9.90413C19.8442 9.25288 19.3011 8.75 18.6479 8.75H15C14.5858 8.75 14.25 8.41421 14.25 8V5C14.25 4.30964 13.6904 3.75 13 3.75H11ZM20.1901 13.75H3.80991L3.33061 19.9808C3.31944 20.126 3.43425 20.25 3.57988 20.25H8.25V17.5C8.25 17.0858 8.58578 16.75 9 16.75C9.41421 16.75 9.75 17.0858 9.75 17.5V20.25H20.4201C20.5657 20.25 20.6806 20.126 20.6694 19.9808L20.1901 13.75ZM8.25 5C8.25 3.48122 9.48122 2.25 11 2.25H13C14.5188 2.25 15.75 3.48122 15.75 5V7.25H18.6479C20.0849 7.25 21.2796 8.35634 21.3898 9.78908L22.165 19.8658C22.2432 20.8822 21.4395 21.75 20.4201 21.75H3.57988C2.56048 21.75 1.75685 20.8822 1.83503 19.8658L2.61016 9.78909C2.72037 8.35634 3.91509 7.25 5.35206 7.25H8.25V5Z" fill="black"/>
</svg>
