<svg width="24" height="24" viewBox="0 0 24 24" fill="none" xmlns="http://www.w3.org/2000/svg">
<path fill-rule="evenodd" clip-rule="evenodd" d="M5 3.25C4.0335 3.25 3.25 4.0335 3.25 5V16C3.25 16.9665 4.0335 17.75 5 17.75H16C16.9665 17.75 17.75 16.9665 17.75 16V5C17.75 4.0335 16.9665 3.25 16 3.25H5ZM4.75 5C4.75 4.86193 4.86193 4.75 5 4.75H16C16.1381 4.75 16.25 4.86193 16.25 5V16C16.25 16.1381 16.1381 16.25 16 16.25H5C4.86193 16.25 4.75 16.1381 4.75 16V5ZM20.75 7C20.75 6.58579 20.4142 6.25 20 6.25C19.5858 6.25 19.25 6.58579 19.25 7V18C19.25 18.6904 18.6904 19.25 18 19.25H8C7.58579 19.25 7.25 19.5858 7.25 20C7.25 20.4142 7.58579 20.75 8 20.75H18C19.5188 20.75 20.75 19.5188 20.75 18V7Z" fill="black"/>
</svg>