<svg width="24" height="24" viewBox="0 0 24 24" fill="none" xmlns="http://www.w3.org/2000/svg">
<path fill-rule="evenodd" clip-rule="evenodd" d="M9 2.25C8.58579 2.25 8.25 2.58579 8.25 3C8.25 3.41421 8.58579 3.75 9 3.75H15C15.4142 3.75 15.75 3.41421 15.75 3C15.75 2.58579 15.4142 2.25 15 2.25H9ZM2.25 6C2.25 5.58579 2.58579 5.25 3 5.25H4.25H5H19H19.75H21C21.4142 5.25 21.75 5.58579 21.75 6C21.75 6.41421 21.4142 6.75 21 6.75H19.75V19C19.75 20.5188 18.5188 21.75 17 21.75H7C5.48122 21.75 4.25 20.5188 4.25 19V6.75H3C2.58579 6.75 2.25 6.41421 2.25 6ZM5.75 6.75H18.25V19C18.25 19.6904 17.6904 20.25 17 20.25H7C6.30964 20.25 5.75 19.6904 5.75 19V6.75ZM9.5 10.25C9.91421 10.25 10.25 10.5858 10.25 11V16C10.25 16.4142 9.91421 16.75 9.5 16.75C9.08579 16.75 8.75 16.4142 8.75 16V11C8.75 10.5858 9.08579 10.25 9.5 10.25ZM14.5 10.25C14.9142 10.25 15.25 10.5858 15.25 11V16C15.25 16.4142 14.9142 16.75 14.5 16.75C14.0858 16.75 13.75 16.4142 13.75 16V11C13.75 10.5858 14.0858 10.25 14.5 10.25Z" fill="black"/>
</svg>
