<svg width="24" height="24" viewBox="0 0 24 24" fill="none" xmlns="http://www.w3.org/2000/svg">
<path fill-rule="evenodd" clip-rule="evenodd" d="M4.25 5.5C4.25 4.80964 4.80964 4.25 5.5 4.25H12C12.4142 4.25 12.75 3.91421 12.75 3.5C12.75 3.08579 12.4142 2.75 12 2.75H5.5C3.98122 2.75 2.75 3.98122 2.75 5.5V18.5C2.75 20.0188 3.98122 21.25 5.5 21.25H18.5C20.0188 21.25 21.25 20.0188 21.25 18.5V12C21.25 11.5858 20.9142 11.25 20.5 11.25C20.0858 11.25 19.75 11.5858 19.75 12V18.5C19.75 19.1904 19.1904 19.75 18.5 19.75H5.5C4.80964 19.75 4.25 19.1904 4.25 18.5V5.5ZM19.5303 5.53033C19.8232 5.23744 19.8232 4.76256 19.5303 4.46967C19.2374 4.17678 18.7626 4.17678 18.4697 4.46967L9.46967 13.4697C9.17678 13.7626 9.17678 14.2374 9.46967 14.5303C9.76256 14.8232 10.2374 14.8232 10.5303 14.5303L19.5303 5.53033Z" fill="black"/>
</svg>