<svg width="24" height="24" viewBox="0 0 24 24" fill="none" xmlns="http://www.w3.org/2000/svg">
<path fill-rule="evenodd" clip-rule="evenodd" d="M3.3986 15.7123C3.30631 15.8046 3.2397 15.9194 3.20536 16.0453L2.1447 19.9344C2.07388 20.194 2.14763 20.4717 2.33794 20.662C2.52826 20.8524 2.80595 20.9261 3.06561 20.8553L6.9547 19.7946C7.08062 19.7603 7.1954 19.6937 7.28769 19.6014L19.6621 7.22701C20.736 6.15307 20.736 4.41187 19.6621 3.33793C18.5881 2.26399 16.8469 2.26399 15.773 3.33793L3.3986 15.7123ZM3.93719 19.0628L4.6001 16.6321L16.8336 4.39859C17.3218 3.91043 18.1132 3.91043 18.6014 4.39859C19.0896 4.88674 19.0896 5.6782 18.6014 6.16635L6.36787 18.3999L3.93719 19.0628ZM12 19.25C11.5858 19.25 11.25 19.5858 11.25 20C11.25 20.4142 11.5858 20.75 12 20.75H20.5C20.9142 20.75 21.25 20.4142 21.25 20C21.25 19.5858 20.9142 19.25 20.5 19.25H12Z" fill="black"/>
</svg>
