<svg width="24" height="24" viewBox="0 0 24 24" fill="none" xmlns="http://www.w3.org/2000/svg">
<g clip-path="url(#clip0_900_646)">
<path fill-rule="evenodd" clip-rule="evenodd" d="M18.8128 14.8865C19.1057 15.1794 19.5806 15.1794 19.8735 14.8865C20.1664 14.5936 20.1664 14.1188 19.8735 13.8259L18.4593 12.4117C18.1664 12.1188 17.6915 12.1188 17.3986 12.4117C17.1057 12.7046 17.1057 13.1794 17.3986 13.4723L18.8128 14.8865ZM15.4541 8.3458C16.528 9.41974 16.528 11.1609 15.4541 12.2349L6.96878 20.7202C5.89484 21.7941 4.15364 21.7941 3.0797 20.7202C2.00575 19.6462 2.00575 17.905 3.0797 16.8311L11.565 8.3458C12.6389 7.27186 14.3801 7.27186 15.4541 8.3458ZM14.3934 11.1742C14.8816 10.6861 14.8816 9.89462 14.3934 9.40646C13.9052 8.91831 13.1138 8.91831 12.6256 9.40646L11.2114 10.8207L12.9792 12.5884L14.3934 11.1742ZM11.9185 13.6491L10.1508 11.8813L4.14036 17.8917C3.6522 18.3799 3.6522 19.1714 4.14036 19.6595C4.62851 20.1477 5.41997 20.1477 5.90812 19.6595L11.9185 13.6491ZM11.3882 6.40125C11.0953 6.69415 10.6204 6.69415 10.3275 6.40125L8.91332 4.98704C8.62043 4.69415 8.62043 4.21927 8.91332 3.92638C9.20621 3.63349 9.68109 3.63349 9.97398 3.92638L11.3882 5.34059C11.6811 5.63349 11.6811 6.10836 11.3882 6.40125ZM21.8609 9.76001C21.8609 10.1742 21.5251 10.51 21.1109 10.51H19.1109C18.6967 10.51 18.3609 10.1742 18.3609 9.76001C18.3609 9.3458 18.6967 9.01001 19.1109 9.01001H21.1109C21.5251 9.01001 21.8609 9.3458 21.8609 9.76001ZM15.1434 3.16382C15.1434 2.7496 14.8076 2.41382 14.3934 2.41382C13.9792 2.41382 13.6434 2.7496 13.6434 3.16382L13.6434 5.16382C13.6434 5.57803 13.9792 5.91382 14.3934 5.91382C14.8076 5.91382 15.1434 5.57803 15.1434 5.16382L15.1434 3.16382ZM17.3986 7.10836C17.1057 6.81547 17.1057 6.34059 17.3986 6.0477L18.8128 4.63349C19.1057 4.34059 19.5806 4.34059 19.8735 4.63349C20.1664 4.92638 20.1664 5.40125 19.8735 5.69415L18.4593 7.10836C18.1664 7.40125 17.6915 7.40125 17.3986 7.10836Z" fill="black"/>
</g>
<defs>
<clipPath id="clip0_900_646">
<rect width="24" height="24" fill="white"/>
</clipPath>
</defs>
</svg>
