<svg width="24" height="24" viewBox="0 0 24 24" fill="none" xmlns="http://www.w3.org/2000/svg">
<path fill-rule="evenodd" clip-rule="evenodd" d="M15.1909 3.02473C14.7904 2.91925 14.3801 3.15845 14.2747 3.55901C14.1692 3.95957 14.4084 4.36979 14.809 4.47528C15.942 4.77365 16.9755 5.3674 17.804 6.1959C18.6325 7.0244 19.2263 8.05795 19.5247 9.19099C19.6301 9.59155 20.0404 9.83076 20.4409 9.72528C20.8415 9.61979 21.0807 9.20957 20.9752 8.80901C20.6092 7.41922 19.8809 6.15147 18.8647 5.13524C17.8485 4.11901 16.5807 3.39071 15.1909 3.02473ZM14.4438 6.02549C14.0437 5.91843 13.6325 6.15601 13.5254 6.55615C13.4184 6.95629 13.656 7.36746 14.0561 7.47452C15.3458 7.81959 16.1804 8.65413 16.5254 9.94385C16.6325 10.344 17.0437 10.5816 17.4438 10.4745C17.8439 10.3675 18.0815 9.95629 17.9745 9.55615C17.4908 7.74837 16.2516 6.50917 14.4438 6.02549Z" fill="black"/>
<path d="M15.4116 13.6256C15.5154 13.5565 15.6349 13.5144 15.7591 13.5031C15.8834 13.4918 16.0085 13.5117 16.1231 13.5609L20.5444 15.5419C20.6934 15.6055 20.8177 15.7158 20.8989 15.856C20.98 15.9963 21.0135 16.1591 20.9944 16.32C20.8487 17.4085 20.3127 18.407 19.486 19.1299C18.6593 19.8528 17.5982 20.2508 16.5 20.25C13.1185 20.25 9.87548 18.9067 7.48439 16.5156C5.0933 14.1245 3.75 10.8815 3.75 7.49998C3.74916 6.4018 4.1472 5.34068 4.87009 4.51398C5.59298 3.68728 6.59152 3.15126 7.68 3.0056C7.84091 2.98649 8.00368 3.02 8.14395 3.10112C8.28422 3.18224 8.39444 3.30661 8.45813 3.4556L10.4391 7.8806C10.4877 7.99426 10.5076 8.11818 10.4968 8.24134C10.486 8.36451 10.4449 8.48309 10.3772 8.58654L8.37375 10.9687C8.30269 11.076 8.26066 11.1998 8.25179 11.3281C8.24291 11.4565 8.26749 11.5849 8.32313 11.7009C9.09844 13.2881 10.7391 14.909 12.3309 15.6769C12.4475 15.7322 12.5766 15.7563 12.7053 15.7466C12.834 15.7369 12.958 15.6938 13.065 15.6215L15.4116 13.6256Z" stroke="black" stroke-width="1.5" stroke-linecap="round" stroke-linejoin="round"/>
</svg>
