<svg width="24" height="24" viewBox="0 0 24 24" fill="none" xmlns="http://www.w3.org/2000/svg">
<path fill-rule="evenodd" clip-rule="evenodd" d="M7 1.25C5.48122 1.25 4.25 2.48122 4.25 4V20C4.25 21.5188 5.48122 22.75 7 22.75H17C18.5188 22.75 19.75 21.5188 19.75 20V4C19.75 2.48122 18.5188 1.25 17 1.25H7ZM5.75 4C5.75 3.30964 6.30964 2.75 7 2.75H17C17.6904 2.75 18.25 3.30964 18.25 4V20C18.25 20.6904 17.6904 21.25 17 21.25H7C6.30964 21.25 5.75 20.6904 5.75 20V4ZM12 19.5C12.5523 19.5 13 19.0523 13 18.5C13 17.9477 12.5523 17.5 12 17.5C11.4477 17.5 11 17.9477 11 18.5C11 19.0523 11.4477 19.5 12 19.5Z" fill="black"/>
</svg>
