<svg width="24" height="24" viewBox="0 0 24 24" fill="none" xmlns="http://www.w3.org/2000/svg">
<path fill-rule="evenodd" clip-rule="evenodd" d="M12.7501 2.5C12.7501 2.08579 12.4143 1.75 12.0001 1.75C11.5859 1.75 11.2501 2.08579 11.2501 2.5V11.5C11.2501 11.9142 11.5859 12.25 12.0001 12.25C12.4143 12.25 12.7501 11.9142 12.7501 11.5V2.5ZM3.90853 11.3905C4.22685 9.79016 5.01259 8.32015 6.16637 7.16637C6.45927 6.87348 6.45927 6.3986 6.16637 6.10571C5.87348 5.81282 5.39861 5.81282 5.10571 6.10571C3.74215 7.46927 2.81355 9.20655 2.43735 11.0979C2.06114 12.9892 2.25422 14.9496 2.99218 16.7312C3.73013 18.5127 4.97982 20.0355 6.58319 21.1068C8.18657 22.1782 10.0716 22.75 12 22.75C13.9284 22.75 15.8134 22.1782 17.4168 21.1068C19.0202 20.0355 20.2699 18.5127 21.0078 16.7312C21.7458 14.9496 21.9389 12.9892 21.5627 11.0979C21.1865 9.20655 20.2579 7.46927 18.8943 6.10571C18.6014 5.81282 18.1265 5.81282 17.8336 6.10571C17.5407 6.3986 17.5407 6.87348 17.8336 7.16637C18.9874 8.32015 19.7732 9.79016 20.0915 11.3905C20.4098 12.9908 20.2464 14.6496 19.622 16.1571C18.9976 17.6646 17.9402 18.9531 16.5835 19.8596C15.2268 20.7661 13.6317 21.25 12 21.25C10.3683 21.25 8.77325 20.7661 7.41655 19.8596C6.05984 18.9531 5.00242 17.6646 4.378 16.1571C3.75358 14.6496 3.5902 12.9908 3.90853 11.3905Z" fill="black"/>
</svg>
