<svg width="24" height="24" viewBox="0 0 24 24" fill="none" xmlns="http://www.w3.org/2000/svg">
<path fill-rule="evenodd" clip-rule="evenodd" d="M7 3.5C6.30964 3.5 5.75 4.05964 5.75 4.75V7V12V17V19.25C5.75 19.9404 6.30964 20.5 7 20.5H19C19.6904 20.5 20.25 19.9404 20.25 19.25V4.75C20.25 4.05964 19.6904 3.5 19 3.5H7ZM4.25 16.25V12.75H3C2.58579 12.75 2.25 12.4142 2.25 12C2.25 11.5858 2.58579 11.25 3 11.25H4.25V7.75H3C2.58579 7.75 2.25 7.41421 2.25 7C2.25 6.58579 2.58579 6.25 3 6.25H4.25V4.75C4.25 3.23122 5.48122 2 7 2H19C20.5188 2 21.75 3.23122 21.75 4.75V19.25C21.75 20.7688 20.5188 22 19 22H7C5.48122 22 4.25 20.7688 4.25 19.25V17.75H3C2.58579 17.75 2.25 17.4142 2.25 17C2.25 16.5858 2.58579 16.25 3 16.25H4.25ZM13 8.5C11.8954 8.5 11 9.39543 11 10.5C11 11.6046 11.8954 12.5 13 12.5C14.1046 12.5 15 11.6046 15 10.5C15 9.39543 14.1046 8.5 13 8.5ZM9.5 10.5C9.5 8.567 11.067 7 13 7C14.933 7 16.5 8.567 16.5 10.5C16.5 11.5338 16.0517 12.463 15.339 13.1037C16.3751 13.4603 17.5305 14.1763 18.3932 15.6141C18.6063 15.9693 18.4911 16.43 18.1359 16.6431C17.7807 16.8562 17.32 16.7411 17.1069 16.3859C15.8327 14.2621 13.7298 14.25 13 14.25C12.7388 14.25 12.0237 14.3493 11.1931 14.693C10.3731 15.0323 9.49778 15.5864 8.85004 16.45C8.60152 16.7814 8.13141 16.8485 7.80004 16.6C7.46867 16.3515 7.40152 15.8814 7.65004 15.55C8.50231 14.4136 9.62696 13.7177 10.6195 13.307C10.6835 13.2805 10.7472 13.2551 10.8105 13.2308C10.0115 12.5893 9.5 11.6044 9.5 10.5Z" fill="black"/>
</svg>
