<svg width="24" height="24" viewBox="0 0 24 24" fill="none" xmlns="http://www.w3.org/2000/svg">
<path fill-rule="evenodd" clip-rule="evenodd" d="M4.5 4.75C3.80964 4.75 3.25 5.30964 3.25 6V8.75H20.75V6C20.75 5.30964 20.1904 4.75 19.5 4.75H4.5ZM1.75 6V9.5V18C1.75 19.5188 2.98122 20.75 4.5 20.75H19.5C21.0188 20.75 22.25 19.5188 22.25 18V9.5V6C22.25 4.48122 21.0188 3.25 19.5 3.25H4.5C2.98122 3.25 1.75 4.48122 1.75 6ZM20.75 18V10.25H3.25V18C3.25 18.6904 3.80964 19.25 4.5 19.25H19.5C20.1904 19.25 20.75 18.6904 20.75 18ZM6 15.75C5.58579 15.75 5.25 16.0858 5.25 16.5C5.25 16.9142 5.58579 17.25 6 17.25H9C9.41421 17.25 9.75 16.9142 9.75 16.5C9.75 16.0858 9.41421 15.75 9 15.75H6Z" fill="black"/>
</svg>
