<svg width="24" height="24" viewBox="0 0 24 24" fill="none" xmlns="http://www.w3.org/2000/svg">
<path fill-rule="evenodd" clip-rule="evenodd" d="M12.25 1.5C11.5596 1.5 11 2.05964 11 2.75V2.82356C7.74627 3.30676 5.24998 6.11186 5.24998 9.5V13.6163C5.24998 15.2111 4.52501 16.7195 3.27963 17.7158L3.03146 17.9143C2.78274 18.1133 2.68683 18.4477 2.79226 18.7483C2.89769 19.0488 3.18146 19.25 3.49998 19.25H20.5C20.8185 19.25 21.1023 19.0488 21.2077 18.7483C21.3131 18.4477 21.2172 18.1133 20.9685 17.9143L20.7203 17.7158C19.475 16.7195 18.75 15.2111 18.75 13.6163V9.5C18.75 6.28762 16.506 3.59936 13.5 2.91726V2.75C13.5 2.05964 12.9403 1.5 12.25 1.5ZM12 4.25C9.10049 4.25 6.74998 6.6005 6.74998 9.5V13.6163C6.74998 15.1276 6.24362 16.5786 5.33622 17.75H18.6637C17.7563 16.5786 17.25 15.1276 17.25 13.6163V9.5C17.25 6.6005 14.8995 4.25 12 4.25ZM9.87774 20.5C9.53267 20.5 9.29472 20.8433 9.48276 21.1327C10.0177 21.9557 10.9453 22.5 12 22.5C13.0547 22.5 13.9823 21.9557 14.5172 21.1327C14.7053 20.8433 14.4673 20.5 14.1223 20.5H9.87774Z" fill="black"/>
</svg>
