<svg width="24" height="25" viewBox="0 0 24 25" fill="none" xmlns="http://www.w3.org/2000/svg">
<path fill-rule="evenodd" clip-rule="evenodd" d="M12.25 2C11.5597 2 11 2.55964 11 3.25V3.32356C7.74631 3.80676 5.25002 6.61186 5.25002 10V14.1163C5.25002 15.1479 4.94669 16.1433 4.3954 16.9874L6.72858 14.6542C6.74281 14.476 6.75002 14.2966 6.75002 14.1163V10C6.75002 7.1005 9.10053 4.75 12 4.75C13.2926 4.75 14.4762 5.21715 15.3909 5.99184L16.4544 4.92834C15.6248 4.19912 14.6148 3.67023 13.5 3.41726V3.25C13.5 2.55964 12.9404 2 12.25 2ZM5.81066 19.75L4.53033 21.0303C4.23744 21.3232 3.76256 21.3232 3.46967 21.0303C3.17678 20.7374 3.17678 20.2626 3.46967 19.9697L19.4697 3.96967C19.7626 3.67678 20.2374 3.67678 20.5303 3.96967C20.8232 4.26256 20.8232 4.73744 20.5303 5.03033L18.2102 7.35049C18.5577 8.16394 18.75 9.05951 18.75 10V14.1163C18.75 15.7111 19.475 17.2195 20.7204 18.2158L20.9685 18.4143C21.2173 18.6133 21.3132 18.9477 21.2077 19.2483C21.1023 19.5488 20.8185 19.75 20.5 19.75H5.81066ZM17.039 8.52166C17.1763 8.99057 17.25 9.48668 17.25 10V14.1163C17.25 15.6276 17.7564 17.0786 18.6638 18.25H7.31066L17.039 8.52166ZM9.87778 21C9.53271 21 9.29475 21.3433 9.4828 21.6327C10.0177 22.4557 10.9453 23 12 23C13.0548 23 13.9824 22.4557 14.5173 21.6327C14.7053 21.3433 14.4674 21 14.1223 21H9.87778Z" fill="black"/>
</svg>
