<svg width="24" height="24" viewBox="0 0 24 24" fill="none" xmlns="http://www.w3.org/2000/svg">
<path fill-rule="evenodd" clip-rule="evenodd" d="M16.5 2.25C16.9142 2.25 17.25 2.58579 17.25 3V3.75H19C20.5188 3.75 21.75 4.98122 21.75 6.5V19C21.75 20.5188 20.5188 21.75 19 21.75H5C3.48122 21.75 2.25 20.5188 2.25 19V6.5C2.25 4.98122 3.48122 3.75 5 3.75H6.75V3C6.75 2.58579 7.08579 2.25 7.5 2.25C7.91421 2.25 8.25 2.58579 8.25 3V3.75H15.75V3C15.75 2.58579 16.0858 2.25 16.5 2.25ZM6.75 5.25V6C6.75 6.41421 7.08579 6.75 7.5 6.75C7.91421 6.75 8.25 6.41421 8.25 6V5.25H15.75V6C15.75 6.41421 16.0858 6.75 16.5 6.75C16.9142 6.75 17.25 6.41421 17.25 6V5.25H19C19.6904 5.25 20.25 5.80964 20.25 6.5V19C20.25 19.6904 19.6904 20.25 19 20.25H5C4.30964 20.25 3.75 19.6904 3.75 19V6.5C3.75 5.80964 4.30964 5.25 5 5.25H6.75ZM6.75 10.5C6.75 10.0858 7.08579 9.75 7.5 9.75H16.5C16.9142 9.75 17.25 10.0858 17.25 10.5C17.25 10.9142 16.9142 11.25 16.5 11.25H7.5C7.08579 11.25 6.75 10.9142 6.75 10.5ZM7.5 14.75C7.08579 14.75 6.75 15.0858 6.75 15.5C6.75 15.9142 7.08579 16.25 7.5 16.25H13.5C13.9142 16.25 14.25 15.9142 14.25 15.5C14.25 15.0858 13.9142 14.75 13.5 14.75H7.5Z" fill="black"/>
</svg>
