<svg width="24" height="24" viewBox="0 0 24 24" fill="none" xmlns="http://www.w3.org/2000/svg">
<path fill-rule="evenodd" clip-rule="evenodd" d="M1.75 6C1.75 4.48122 2.98122 3.25 4.5 3.25H19.5C21.0188 3.25 22.25 4.48122 22.25 6V9C22.25 9.71884 21.6808 10.1778 21.1514 10.2846C20.3519 10.4458 19.75 11.1534 19.75 12C19.75 12.8466 20.3519 13.5542 21.1514 13.7154C21.6808 13.8222 22.25 14.2812 22.25 15V18C22.25 19.5188 21.0188 20.75 19.5 20.75H4.5C2.98122 20.75 1.75 19.5188 1.75 18V15C1.75 14.2812 2.31921 13.8222 2.84857 13.7154C3.64814 13.5542 4.25 12.8466 4.25 12C4.25 11.1534 3.64814 10.4458 2.84857 10.2846C2.31921 10.1778 1.75 9.71885 1.75 9V6ZM4.5 4.75C3.80964 4.75 3.25 5.30964 3.25 6V8.83714C4.68328 9.17603 5.75 10.4626 5.75 12C5.75 13.5374 4.68328 14.824 3.25 15.1629V18C3.25 18.6904 3.80964 19.25 4.5 19.25H19.5C20.1904 19.25 20.75 18.6904 20.75 18V15.1629C19.3167 14.824 18.25 13.5374 18.25 12C18.25 10.4626 19.3167 9.17603 20.75 8.83714V6C20.75 5.30964 20.1904 4.75 19.5 4.75H4.5ZM9.46967 8.46967C9.76256 8.17678 10.2374 8.17678 10.5303 8.46967L12 9.93934L13.4697 8.46967C13.7626 8.17678 14.2374 8.17678 14.5303 8.46967C14.8232 8.76256 14.8232 9.23744 14.5303 9.53033L12.75 11.3107V12H13.75C14.1642 12 14.5 12.3358 14.5 12.75C14.5 13.1642 14.1642 13.5 13.75 13.5H12.75V15C12.75 15.4142 12.4142 15.75 12 15.75C11.5858 15.75 11.25 15.4142 11.25 15V13.5H10.25C9.83579 13.5 9.5 13.1642 9.5 12.75C9.5 12.3358 9.83579 12 10.25 12H11.25V11.3107L9.46967 9.53033C9.17678 9.23744 9.17678 8.76256 9.46967 8.46967Z" fill="black"/>
</svg>
