<svg width="24" height="24" viewBox="0 0 24 24" fill="none" xmlns="http://www.w3.org/2000/svg">
<path fill-rule="evenodd" clip-rule="evenodd" d="M17.5303 10.5303L12.5303 15.5303C12.2374 15.8232 11.7626 15.8232 11.4697 15.5303L6.46967 10.5303C6.17678 10.2374 6.17678 9.76256 6.46967 9.46967C6.76256 9.17678 7.23744 9.17678 7.53033 9.46967L11.25 13.1893V3C11.25 2.58579 11.5858 2.25 12 2.25C12.4142 2.25 12.75 2.58579 12.75 3V13.1893L16.4697 9.46967C16.7626 9.17678 17.2374 9.17678 17.5303 9.46967C17.8232 9.76256 17.8232 10.2374 17.5303 10.5303ZM3.75 15C3.75 14.5858 3.41421 14.25 3 14.25C2.58579 14.25 2.25 14.5858 2.25 15V19C2.25 20.5188 3.48122 21.75 5 21.75H19C20.5188 21.75 21.75 20.5188 21.75 19V15C21.75 14.5858 21.4142 14.25 21 14.25C20.5858 14.25 20.25 14.5858 20.25 15V19C20.25 19.6904 19.6904 20.25 19 20.25H5C4.30964 20.25 3.75 19.6904 3.75 19V15Z" fill="black"/>
</svg>
