<svg width="24" height="24" viewBox="0 0 24 24" fill="none" xmlns="http://www.w3.org/2000/svg">
<path fill-rule="evenodd" clip-rule="evenodd" d="M5.00678 6.74014C3.90383 8.20423 3.25 10.0258 3.25 12C3.25 16.8325 7.16751 20.75 12 20.75C12.8065 20.75 13.5874 20.6409 14.329 20.4366C14.3344 20.2615 14.3061 20.1221 14.264 20.0063C14.1907 19.8048 14.0535 19.6141 13.8447 19.4053C13.6955 19.2561 13.5494 19.1333 13.3834 18.9937C13.2956 18.9199 13.2023 18.8414 13.0999 18.7519C12.8431 18.5271 12.5249 18.2267 12.3292 17.8354C11.9741 17.1252 11.9622 16.0954 12.4265 15.3525C12.6772 14.9514 13.0783 14.6215 13.6298 14.5138C14.1639 14.4096 14.742 14.5324 15.3355 14.8291C16.3651 15.344 16.5816 15.375 16.6875 15.375C16.7427 15.375 16.781 15.3685 16.889 15.3503C16.9329 15.3429 16.9884 15.3335 17.0612 15.3219C17.2874 15.2857 17.5777 15.25 18 15.25C18.805 15.25 19.388 15.5849 19.7561 16.0542C20.3909 14.8422 20.75 13.4631 20.75 12C20.75 8.89487 19.1326 6.16751 16.6942 4.61448C16.5629 5.45519 16.144 6.51658 14.8355 7.17082C13.9521 7.61254 13.0834 7.8824 12.3995 8.04117C12.2796 8.069 12.1757 8.14547 12.1157 8.23744C12.0593 8.32399 12.0552 8.39835 12.0749 8.45836C12.3226 9.21374 12.6426 10.2254 12.5988 11.1707C12.5761 11.6614 12.4552 12.1715 12.1503 12.6315C11.8422 13.0965 11.3831 13.4546 10.7786 13.6964C10.5068 13.8051 10.1908 13.8572 9.86734 13.7599C9.54467 13.6627 9.32711 13.4506 9.1856 13.252C8.94879 12.9197 8.8136 12.4533 8.71583 12.116L8.71582 12.116L8.70049 12.0632C8.58255 11.6581 8.48127 11.316 8.33188 11.0369C8.19064 10.773 8.04635 10.643 7.88059 10.5834C7.54691 10.4635 7.18607 10.4775 6.76389 10.4939L6.66475 10.4977C6.55898 10.5016 6.43776 10.5048 6.32146 10.4993C6.21146 10.4941 6.05554 10.4795 5.8974 10.4235C5.72865 10.3637 5.50798 10.2378 5.36851 9.98304C5.23402 9.73742 5.23968 9.48885 5.27009 9.31504C5.31175 9.07698 5.39756 8.85119 5.4494 8.71476C5.46057 8.68537 5.47016 8.66013 5.4774 8.63981C5.5247 8.50693 5.54878 8.40954 5.54544 8.27365C5.53947 8.03113 5.44349 7.59363 5.00678 6.74014ZM6.0763 5.56004C6.75857 6.78343 7.0291 7.59129 7.04498 8.23674C7.05245 8.54018 7.00325 8.78425 6.94267 8.98513C7.3314 8.97361 7.8689 8.98523 8.3881 9.17191C9.02298 9.40018 9.40903 9.8707 9.65436 10.3291C9.88236 10.7551 10.022 11.2354 10.128 11.6004L10.1407 11.644C10.227 11.9405 10.2878 12.1311 10.3394 12.2527C10.6312 12.1164 10.798 11.9568 10.8999 11.803C11.0181 11.6246 11.0867 11.3968 11.1004 11.1013C11.1295 10.4741 10.91 9.72001 10.6496 8.92585C10.2837 7.81048 11.1049 6.80182 12.0603 6.58002C12.6577 6.44135 13.4098 6.2066 14.1647 5.82918C15.1193 5.35185 15.236 4.55415 15.2489 3.87303C14.2444 3.47109 13.148 3.25 12 3.25C9.71508 3.25 7.63472 4.12581 6.0763 5.56004ZM18.8057 17.5C17.9924 18.5052 16.9609 19.3266 15.7832 19.8921C15.7571 19.7551 15.7204 19.6223 15.6737 19.4937C15.4969 19.0077 15.1966 18.6359 14.9054 18.3447C14.7102 18.1495 14.4791 17.9547 14.2886 17.7942L14.2886 17.7942L14.2883 17.794C14.2136 17.731 14.1452 17.6733 14.0877 17.623C13.8445 17.4103 13.7252 17.2732 13.6709 17.1645C13.6088 17.0405 13.5649 16.8528 13.5701 16.6437C13.5754 16.4345 13.6282 16.26 13.6985 16.1475C13.7603 16.0486 13.8281 16.0034 13.9171 15.9861C14.0237 15.9653 14.2581 15.9675 14.6646 16.1708C15.635 16.6559 16.1685 16.875 16.6875 16.875C16.8812 16.875 17.0763 16.8412 17.2167 16.8168L17.2169 16.8168C17.2467 16.8117 17.2739 16.8069 17.2982 16.803C17.4627 16.7767 17.6724 16.75 18 16.75C18.3556 16.75 18.5054 16.8813 18.5914 17.0007C18.7049 17.1583 18.75 17.37 18.75 17.5H18.8057ZM1.75 12C1.75 6.33908 6.33908 1.75 12 1.75C17.6609 1.75 22.25 6.33908 22.25 12C22.25 17.6609 17.6609 22.25 12 22.25C6.33908 22.25 1.75 17.6609 1.75 12Z" fill="black"/>
</svg>
