<svg width="24" height="24" viewBox="0 0 24 24" fill="none" xmlns="http://www.w3.org/2000/svg">
<path fill-rule="evenodd" clip-rule="evenodd" d="M2.63096 11.5209C3.23734 10.5178 4.40279 8.80364 6.02565 7.34835C7.65097 5.89085 9.66949 4.75 12 4.75C14.3305 4.75 16.349 5.89085 17.9743 7.34835C19.5972 8.80364 20.7626 10.5178 21.369 11.5209C21.5505 11.8211 21.5505 12.1789 21.369 12.4791C20.7626 13.4822 19.5972 15.1964 17.9743 16.6517C16.349 18.1091 14.3305 19.25 12 19.25C9.66949 19.25 7.65098 18.1091 6.02565 16.6517C4.40279 15.1964 3.23734 13.4822 2.63096 12.4791C2.44951 12.1789 2.44951 11.8211 2.63096 11.5209ZM12 3.25C9.15987 3.25 6.79877 4.64029 5.02421 6.2316C3.24719 7.82513 1.9925 9.6775 1.34725 10.745C0.877414 11.5223 0.877415 12.4777 1.34725 13.255C1.9925 14.3225 3.24719 16.1749 5.02421 17.7684C6.79877 19.3597 9.15987 20.75 12 20.75C14.8401 20.75 17.2012 19.3597 18.9758 17.7684C20.7528 16.1749 22.0075 14.3225 22.6527 13.255C23.1226 12.4777 23.1226 11.5223 22.6527 10.745C22.0075 9.6775 20.7528 7.82513 18.9758 6.2316C17.2012 4.64029 14.8401 3.25 12 3.25ZM9.74998 12C9.74998 10.7574 10.7573 9.75 12 9.75C13.2426 9.75 14.25 10.7574 14.25 12C14.25 13.2426 13.2426 14.25 12 14.25C10.7573 14.25 9.74998 13.2426 9.74998 12ZM12 8.25C9.92892 8.25 8.24998 9.92893 8.24998 12C8.24998 14.0711 9.92892 15.75 12 15.75C14.0711 15.75 15.75 14.0711 15.75 12C15.75 9.92893 14.0711 8.25 12 8.25Z" fill="black"/>
</svg>
