<svg width="24" height="24" viewBox="0 0 24 24" fill="none" xmlns="http://www.w3.org/2000/svg">
<path fill-rule="evenodd" clip-rule="evenodd" d="M12 2.75C8.54822 2.75 5.75 5.54822 5.75 9C5.75 12.4518 8.54822 15.25 12 15.25C15.4518 15.25 18.25 12.4518 18.25 9C18.25 5.54822 15.4518 2.75 12 2.75ZM12.75 16.7142C16.6783 16.3369 19.75 13.0272 19.75 9C19.75 4.71979 16.2802 1.25 12 1.25C7.71979 1.25 4.25 4.71979 4.25 9C4.25 13.0272 7.3217 16.3369 11.25 16.7142V18.75H8C7.58579 18.75 7.25 19.0858 7.25 19.5C7.25 19.9142 7.58579 20.25 8 20.25H11.25V22C11.25 22.4142 11.5858 22.75 12 22.75C12.4142 22.75 12.75 22.4142 12.75 22V20.25H16C16.4142 20.25 16.75 19.9142 16.75 19.5C16.75 19.0858 16.4142 18.75 16 18.75H12.75V16.7142Z" fill="black"/>
</svg>
