<svg width="24" height="24" viewBox="0 0 24 24" fill="none" xmlns="http://www.w3.org/2000/svg">
<path d="M12 7C12 7 11.15 3 8 3C7.40326 3 6.78092 3.23705 6.35896 3.65901C5.937 4.08097 5.69995 4.65326 5.69995 5.25C5.69995 5.84674 5.937 6.41903 6.35896 6.84099" stroke="black" stroke-width="1.5" stroke-linecap="round" stroke-linejoin="round"/>
<path d="M12 7C12 7 12.85 3 16 3C16.5967 3 17.219 3.23705 17.641 3.65901C18.0629 4.08097 18.3 4.65326 18.3 5.25C18.3 5.84674 18.0629 6.41903 17.641 6.84099" stroke="black" stroke-width="1.5" stroke-linecap="round" stroke-linejoin="round"/>
<path d="M4.5 12V19C4.5 20.1046 5.39543 21 6.5 21H17.5C18.6046 21 19.5 20.1046 19.5 19V12" stroke="black" stroke-width="1.5" stroke-linecap="round" stroke-linejoin="round"/>
<path d="M19.5 12H4.5C3.67157 12 3 11.3284 3 10.5V8.5C3 7.67157 3.67157 7 4.5 7H19.5C20.3284 7 21 7.67157 21 8.5V10.5C21 11.3284 20.3284 12 19.5 12Z" stroke="black" stroke-width="1.5" stroke-linecap="round" stroke-linejoin="round"/>
</svg>
