<svg width="24" height="24" viewBox="0 0 24 24" fill="none" xmlns="http://www.w3.org/2000/svg">
<path fill-rule="evenodd" clip-rule="evenodd" d="M10.2584 3.42333C6.49876 4.18263 3.61258 7.35212 3.28169 11.25H7.28267C7.48442 8.28729 8.52822 5.72832 10.2584 3.42333ZM12 1.75C6.33908 1.75 1.75 6.33908 1.75 12C1.75 17.6609 6.33908 22.25 12 22.25C17.6609 22.25 22.25 17.6609 22.25 12C22.25 6.33908 17.6609 1.75 12 1.75ZM13.7416 3.42333C15.4718 5.72832 16.5156 8.28729 16.7173 11.25H20.7183C20.3874 7.35212 17.5012 4.18263 13.7416 3.42333ZM15.2135 11.25C14.9952 8.36443 13.8851 5.89917 12 3.6396C10.1149 5.89917 9.00484 8.36443 8.78654 11.25H15.2135ZM8.78654 12.75H15.2135C14.9952 15.6356 13.8851 18.1008 12 20.3604C10.1149 18.1008 9.00484 15.6356 8.78654 12.75ZM7.28267 12.75H3.28169C3.61258 16.6479 6.49876 19.8174 10.2584 20.5767C8.52821 18.2717 7.48442 15.7127 7.28267 12.75ZM13.7416 20.5767C15.4718 18.2717 16.5156 15.7127 16.7173 12.75H20.7183C20.3874 16.6479 17.5012 19.8174 13.7416 20.5767Z" fill="black"/>
</svg>
