<svg width="24" height="24" viewBox="0 0 24 24" fill="none" xmlns="http://www.w3.org/2000/svg">
<path fill-rule="evenodd" clip-rule="evenodd" d="M2.64735 9.62105C2.43806 9.2636 1.97863 9.14349 1.62118 9.35277C1.26372 9.56206 1.14361 10.0215 1.3529 10.3789C2.52583 12.3823 4.53964 13.9683 7.01686 14.8819L6.30083 16.7289C6.15111 17.1151 6.34282 17.5496 6.72902 17.6993C7.11523 17.849 7.54969 17.6573 7.69941 17.2711L8.45469 15.3229C9.34621 15.544 10.2828 15.6837 11.2501 15.7315V17.5C11.2501 17.9142 11.5859 18.25 12.0001 18.25C12.4143 18.25 12.7501 17.9142 12.7501 17.5V15.7315C13.7174 15.6837 14.6541 15.544 15.5456 15.3229L16.3008 17.2711C16.4505 17.6573 16.885 17.849 17.2712 17.6993C17.6574 17.5496 17.8491 17.1151 17.6994 16.7289L16.9835 14.8821C19.4624 13.9696 21.5002 12.3847 22.6746 10.3789C22.8839 10.0215 22.7637 9.56206 22.4063 9.35277C22.0488 9.14349 21.5894 9.2636 21.3801 9.62105C20.3131 11.4435 18.3175 12.9378 15.7836 13.7025C14.6149 14.0552 13.3388 14.25 12.0002 14.25C10.6615 14.25 9.38544 14.0552 8.2168 13.7025C5.68643 12.9389 3.71594 11.4462 2.64735 9.62105Z" fill="black"/>
</svg>
