<svg width="24" height="24" viewBox="0 0 24 24" fill="none" xmlns="http://www.w3.org/2000/svg">
<path fill-rule="evenodd" clip-rule="evenodd" d="M12 2.75C9.65279 2.75 7.75 4.65279 7.75 7V8.75H16.25V7C16.25 4.65279 14.3472 2.75 12 2.75ZM6.25 7V8.75H6C4.48122 8.75 3.25 9.98122 3.25 11.5V19C3.25 20.5188 4.48122 21.75 6 21.75H18C19.5188 21.75 20.75 20.5188 20.75 19V11.5C20.75 9.98122 19.5188 8.75 18 8.75H17.75V7C17.75 3.82436 15.1756 1.25 12 1.25C8.82436 1.25 6.25 3.82436 6.25 7ZM6 10.25H7H17H18C18.6904 10.25 19.25 10.8096 19.25 11.5V19C19.25 19.6904 18.6904 20.25 18 20.25H6C5.30964 20.25 4.75 19.6904 4.75 19V11.5C4.75 10.8096 5.30964 10.25 6 10.25ZM9 15.25C8.58579 15.25 8.25 15.5858 8.25 16C8.25 16.4142 8.58579 16.75 9 16.75H15C15.4142 16.75 15.75 16.4142 15.75 16C15.75 15.5858 15.4142 15.25 15 15.25H9Z" fill="black"/>
</svg>
