<svg width="24" height="24" viewBox="0 0 24 24" fill="none" xmlns="http://www.w3.org/2000/svg">
<path fill-rule="evenodd" clip-rule="evenodd" d="M16 3.25C15.5858 3.25 15.25 3.58579 15.25 4C15.25 4.41421 15.5858 4.75 16 4.75H18.1893L14.9242 8.01516C13.5853 6.91231 11.87 6.25 10 6.25C5.71979 6.25 2.25 9.71979 2.25 14C2.25 18.2802 5.71979 21.75 10 21.75C14.2802 21.75 17.75 18.2802 17.75 14C17.75 12.13 17.0877 10.4147 15.9848 9.07582L19.25 5.81066V8C19.25 8.41421 19.5858 8.75 20 8.75C20.4142 8.75 20.75 8.41421 20.75 8V4C20.75 3.58579 20.4142 3.25 20 3.25H16ZM3.75 14C3.75 10.5482 6.54822 7.75 10 7.75C13.4518 7.75 16.25 10.5482 16.25 14C16.25 17.4518 13.4518 20.25 10 20.25C6.54822 20.25 3.75 17.4518 3.75 14Z" fill="black"/>
</svg>
