<svg width="24" height="24" viewBox="0 0 24 24" fill="none" xmlns="http://www.w3.org/2000/svg">
<path fill-rule="evenodd" clip-rule="evenodd" d="M5 3.75C4.30964 3.75 3.75 4.30964 3.75 5V8C3.75 8.69036 4.30964 9.25 5 9.25H8C8.69036 9.25 9.25 8.69036 9.25 8V5C9.25 4.30964 8.69036 3.75 8 3.75H5ZM2.25 5C2.25 3.48122 3.48122 2.25 5 2.25H8C9.51878 2.25 10.75 3.48122 10.75 5V8C10.75 9.51878 9.51878 10.75 8 10.75H5C3.48122 10.75 2.25 9.51878 2.25 8V5ZM5 14.75C4.30964 14.75 3.75 15.3096 3.75 16V19C3.75 19.6904 4.30964 20.25 5 20.25H8C8.69036 20.25 9.25 19.6904 9.25 19V16C9.25 15.3096 8.69036 14.75 8 14.75H5ZM2.25 16C2.25 14.4812 3.48122 13.25 5 13.25H8C9.51878 13.25 10.75 14.4812 10.75 16V19C10.75 20.5188 9.51878 21.75 8 21.75H5C3.48122 21.75 2.25 20.5188 2.25 19V16ZM14.75 5C14.75 4.30964 15.3096 3.75 16 3.75H19C19.6904 3.75 20.25 4.30964 20.25 5V8C20.25 8.69036 19.6904 9.25 19 9.25H16C15.3096 9.25 14.75 8.69036 14.75 8V5ZM16 2.25C14.4812 2.25 13.25 3.48122 13.25 5V8C13.25 9.51878 14.4812 10.75 16 10.75H19C20.5188 10.75 21.75 9.51878 21.75 8V5C21.75 3.48122 20.5188 2.25 19 2.25H16ZM14.5 13.75C14.9142 13.75 15.25 14.0858 15.25 14.5V20.5C15.25 20.9142 14.9142 21.25 14.5 21.25C14.0858 21.25 13.75 20.9142 13.75 20.5V14.5C13.75 14.0858 14.0858 13.75 14.5 13.75ZM18.25 14.5C18.25 14.0858 17.9142 13.75 17.5 13.75C17.0858 13.75 16.75 14.0858 16.75 14.5V20.5C16.75 20.9142 17.0858 21.25 17.5 21.25C17.9142 21.25 18.25 20.9142 18.25 20.5V14.5ZM20.5 13.75C20.9142 13.75 21.25 14.0858 21.25 14.5V20.5C21.25 20.9142 20.9142 21.25 20.5 21.25C20.0858 21.25 19.75 20.9142 19.75 20.5V14.5C19.75 14.0858 20.0858 13.75 20.5 13.75ZM6 5.5C5.72386 5.5 5.5 5.72386 5.5 6V7C5.5 7.27614 5.72386 7.5 6 7.5H7C7.27614 7.5 7.5 7.27614 7.5 7V6C7.5 5.72386 7.27614 5.5 7 5.5H6ZM5.5 17C5.5 16.7239 5.72386 16.5 6 16.5H7C7.27614 16.5 7.5 16.7239 7.5 17V18C7.5 18.2761 7.27614 18.5 7 18.5H6C5.72386 18.5 5.5 18.2761 5.5 18V17ZM17 5.5C16.7239 5.5 16.5 5.72386 16.5 6V7C16.5 7.27614 16.7239 7.5 17 7.5H18C18.2761 7.5 18.5 7.27614 18.5 7V6C18.5 5.72386 18.2761 5.5 18 5.5H17Z" fill="black"/>
</svg>
