<svg width="24" height="24" viewBox="0 0 24 24" fill="none" xmlns="http://www.w3.org/2000/svg">
<path fill-rule="evenodd" clip-rule="evenodd" d="M3 5.75C3 4.23122 4.23122 3 5.75 3H9.75C11.2688 3 12.5 4.23122 12.5 5.75V9.75C12.5 11.2688 11.2688 12.5 9.75 12.5H5.75C4.23122 12.5 3 11.2688 3 9.75V5.75ZM5.75 4.5C5.05964 4.5 4.5 5.05964 4.5 5.75V9.75C4.5 10.4404 5.05964 11 5.75 11H9.75C10.4404 11 11 10.4404 11 9.75V5.75C11 5.05964 10.4404 4.5 9.75 4.5H5.75ZM6.5 8C6.5 8.55228 6.94772 9 7.5 9H8C8.55228 9 9 8.55228 9 8V7.5C9 6.94772 8.55228 6.5 8 6.5H7.5C6.94772 6.5 6.5 6.94772 6.5 7.5V8ZM16.75 3C15.5074 3 14.5 4.00736 14.5 5.25V7.25C14.5 8.49264 15.5074 9.5 16.75 9.5H18.75C19.9926 9.5 21 8.49264 21 7.25V5.25C21 4.00736 19.9926 3 18.75 3H16.75ZM16 5.25C16 4.83579 16.3358 4.5 16.75 4.5H18.75C19.1642 4.5 19.5 4.83579 19.5 5.25V7.25C19.5 7.66421 19.1642 8 18.75 8H16.75C16.3358 8 16 7.66421 16 7.25V5.25ZM14.5 16.75C14.5 15.5074 15.5074 14.5 16.75 14.5H18.75C19.9926 14.5 21 15.5074 21 16.75V18.75C21 19.9926 19.9926 21 18.75 21H16.75C15.5074 21 14.5 19.9926 14.5 18.75V16.75ZM16.75 16C16.3358 16 16 16.3358 16 16.75V18.75C16 19.1642 16.3358 19.5 16.75 19.5H18.75C19.1642 19.5 19.5 19.1642 19.5 18.75V16.75C19.5 16.3358 19.1642 16 18.75 16H16.75ZM5.25 14.5C4.00736 14.5 3 15.5074 3 16.75V18.75C3 19.9926 4.00736 21 5.25 21H7.25C8.49264 21 9.5 19.9926 9.5 18.75V16.75C9.5 15.5074 8.49264 14.5 7.25 14.5H5.25ZM4.5 16.75C4.5 16.3358 4.83579 16 5.25 16H7.25C7.66421 16 8 16.3358 8 16.75V18.75C8 19.1642 7.66421 19.5 7.25 19.5H5.25C4.83579 19.5 4.5 19.1642 4.5 18.75V16.75ZM14.75 12C14.75 11.5858 15.0858 11.25 15.5 11.25H20C20.4142 11.25 20.75 11.5858 20.75 12C20.75 12.4142 20.4142 12.75 20 12.75H15.5C15.0858 12.75 14.75 12.4142 14.75 12ZM11.25 20C11.25 20.4142 11.5858 20.75 12 20.75C12.4142 20.75 12.75 20.4142 12.75 20V15.5C12.75 15.0858 12.4142 14.75 12 14.75C11.5858 14.75 11.25 15.0858 11.25 15.5V20Z" fill="black"/>
</svg>
