<svg width="24" height="24" viewBox="0 0 24 24" fill="none" xmlns="http://www.w3.org/2000/svg">
<path fill-rule="evenodd" clip-rule="evenodd" d="M3.25 12C3.25 7.16751 7.16751 3.25 12 3.25C16.8325 3.25 20.75 7.16751 20.75 12C20.75 16.8325 16.8325 20.75 12 20.75C7.16751 20.75 3.25 16.8325 3.25 12ZM12 1.75C6.33908 1.75 1.75 6.33908 1.75 12C1.75 17.6609 6.33908 22.25 12 22.25C17.6609 22.25 22.25 17.6609 22.25 12C22.25 6.33908 17.6609 1.75 12 1.75ZM12 7.7C10.7574 7.7 9.75 8.70736 9.75 9.95C9.75 10.3642 9.41421 10.7 9 10.7C8.58579 10.7 8.25 10.3642 8.25 9.95C8.25 7.87893 9.92893 6.2 12 6.2C14.0711 6.2 15.75 7.87893 15.75 9.95C15.75 11.7642 14.4617 13.2775 12.75 13.625V14.2C12.75 14.6142 12.4142 14.95 12 14.95C11.5858 14.95 11.25 14.6142 11.25 14.2V12.95C11.25 12.5358 11.5858 12.2 12 12.2C13.2426 12.2 14.25 11.1926 14.25 9.95C14.25 8.70736 13.2426 7.7 12 7.7ZM13 16.95C13 17.5023 12.5523 17.95 12 17.95C11.4477 17.95 11 17.5023 11 16.95C11 16.3977 11.4477 15.95 12 15.95C12.5523 15.95 13 16.3977 13 16.95Z" fill="black"/>
</svg>
