<svg width="24" height="24" viewBox="0 0 24 24" fill="none" xmlns="http://www.w3.org/2000/svg">
<path fill-rule="evenodd" clip-rule="evenodd" d="M7.9035 4.26819C9.8072 3.25956 12.0161 2.98871 14.1071 3.50751C15.7468 3.91434 17.2236 4.78434 18.3689 6.00002H15.75C15.3358 6.00002 15 6.3358 15 6.75002C15 7.16423 15.3358 7.50002 15.75 7.50002H19.75C20.1642 7.50002 20.5 7.16423 20.5 6.75002V2.75002C20.5 2.3358 20.1642 2.00002 19.75 2.00002C19.3358 2.00002 19 2.3358 19 2.75002V4.5125C17.7328 3.32786 16.176 2.47534 14.4683 2.05165C12.0188 1.44391 9.43129 1.7612 7.20124 2.94273C4.97119 4.12426 3.25542 6.08698 2.38257 8.45495C1.50972 10.8229 1.54114 13.4297 2.47082 15.7759C3.40051 18.1221 5.16309 20.0429 7.42098 21.1704C9.67886 22.2978 12.2733 22.5526 14.7074 21.886C17.1415 21.2194 19.2441 19.6782 20.6125 17.5577C21.692 15.8848 22.2547 13.9442 22.25 11.9756C22.249 11.5614 21.9124 11.2264 21.4982 11.2274C21.084 11.2284 20.749 11.565 20.75 11.9792C20.754 13.6597 20.2736 15.3163 19.3521 16.7444C18.184 18.5546 16.3891 19.8702 14.3112 20.4393C12.2333 21.0083 10.0185 20.7908 8.09108 19.8284C6.16362 18.8659 4.65897 17.2262 3.86534 15.2233C3.07171 13.2204 3.04488 10.9952 3.79 8.97374C4.53512 6.9523 5.9998 5.27681 7.9035 4.26819Z" fill="black"/>
</svg>
