<svg width="24" height="24" viewBox="0 0 24 24" fill="none" xmlns="http://www.w3.org/2000/svg">
<path fill-rule="evenodd" clip-rule="evenodd" d="M16.0965 4.26816C14.1928 3.25953 11.9839 2.98868 9.89292 3.50748C8.25319 3.91431 6.77636 4.78431 5.6311 5.99999H8.25C8.66421 5.99999 9 6.33577 9 6.74999C9 7.1642 8.66421 7.49999 8.25 7.49999H4.25C3.83579 7.49999 3.5 7.1642 3.5 6.74999V2.74999C3.5 2.33577 3.83579 1.99999 4.25 1.99999C4.66421 1.99999 5 2.33577 5 2.74999V4.51247C6.26719 3.32783 7.82404 2.47531 9.5317 2.05162C11.9812 1.44388 14.5687 1.76117 16.7988 2.9427C19.0288 4.12423 20.7446 6.08695 21.6174 8.45492C22.4903 10.8229 22.4589 13.4296 21.5292 15.7759C20.5995 18.1221 18.8369 20.0429 16.579 21.1703C14.3211 22.2978 11.7267 22.5526 9.2926 21.886C6.85851 21.2194 4.75591 19.6782 3.38752 17.5577C2.30801 15.8848 1.74532 13.9442 1.75 11.9756C1.75099 11.5614 2.08757 11.2264 2.50178 11.2274C2.91599 11.2284 3.25098 11.565 3.25 11.9792C3.246 13.6597 3.72637 15.3163 4.64788 16.7443C5.81602 18.5545 7.61092 19.8702 9.6888 20.4392C11.7667 21.0083 13.9815 20.7908 15.9089 19.8283C17.8364 18.8659 19.341 17.2262 20.1347 15.2233C20.9283 13.2204 20.9551 10.9951 20.21 8.97371C19.4649 6.95227 18.0002 5.27678 16.0965 4.26816Z" fill="black"/>
</svg>
