<svg width="24" height="24" viewBox="0 0 24 24" fill="none" xmlns="http://www.w3.org/2000/svg">
<path fill-rule="evenodd" clip-rule="evenodd" d="M5.5 2.75C3.98122 2.75 2.75 3.98122 2.75 5.5V8C2.75 8.41421 3.08579 8.75 3.5 8.75C3.91421 8.75 4.25 8.41421 4.25 8V5.5C4.25 4.80964 4.80964 4.25 5.5 4.25H8C8.41421 4.25 8.75 3.91421 8.75 3.5C8.75 3.08579 8.41421 2.75 8 2.75H5.5ZM16 2.75C15.5858 2.75 15.25 3.08579 15.25 3.5C15.25 3.91421 15.5858 4.25 16 4.25H18.5C19.1904 4.25 19.75 4.80964 19.75 5.5V8C19.75 8.41421 20.0858 8.75 20.5 8.75C20.9142 8.75 21.25 8.41421 21.25 8V5.5C21.25 3.98122 20.0188 2.75 18.5 2.75H16ZM4.25 16C4.25 15.5858 3.91421 15.25 3.5 15.25C3.08579 15.25 2.75 15.5858 2.75 16V18.5C2.75 20.0188 3.98122 21.25 5.5 21.25H8C8.41421 21.25 8.75 20.9142 8.75 20.5C8.75 20.0858 8.41421 19.75 8 19.75H5.5C4.80964 19.75 4.25 19.1904 4.25 18.5V16ZM21.25 16C21.25 15.5858 20.9142 15.25 20.5 15.25C20.0858 15.25 19.75 15.5858 19.75 16V18.5C19.75 19.1904 19.1904 19.75 18.5 19.75H16C15.5858 19.75 15.25 20.0858 15.25 20.5C15.25 20.9142 15.5858 21.25 16 21.25H18.5C20.0188 21.25 21.25 20.0188 21.25 18.5V16ZM7.5 11.25C7.08579 11.25 6.75 11.5858 6.75 12C6.75 12.4142 7.08579 12.75 7.5 12.75H16.5C16.9142 12.75 17.25 12.4142 17.25 12C17.25 11.5858 16.9142 11.25 16.5 11.25H7.5Z" fill="black"/>
</svg>
