<svg width="24" height="24" viewBox="0 0 24 24" fill="none" xmlns="http://www.w3.org/2000/svg">
<path fill-rule="evenodd" clip-rule="evenodd" d="M4.25 10.75H3C2.86193 10.75 2.75 10.8619 2.75 11V15C2.75 15.1381 2.86193 15.25 3 15.25H4C4.13807 15.25 4.25 15.1381 4.25 15V11V10.75ZM5.75 11V15C5.75 15.9665 4.9665 16.75 4 16.75H3C2.0335 16.75 1.25 15.9665 1.25 15V11C1.25 10.0335 2.0335 9.25 3 9.25H4.28582C4.66305 5.3217 7.97281 2.25 12 2.25C16.0272 2.25 19.337 5.3217 19.7142 9.25H21C21.9665 9.25 22.75 10.0335 22.75 11V15C22.75 15.9665 21.9665 16.75 21 16.75H20C19.8641 16.75 19.7317 16.7345 19.6047 16.7052C19.2962 17.946 18.5142 18.9806 17.4301 19.7394C16.0261 20.7222 14.1158 21.25 12 21.25C11.5858 21.25 11.25 20.9142 11.25 20.5C11.25 20.0858 11.5858 19.75 12 19.75C13.8842 19.75 15.4739 19.2778 16.5699 18.5106C17.6514 17.7535 18.25 16.7186 18.25 15.5V15V14.75V11V10C18.25 6.54822 15.4518 3.75 12 3.75C8.54822 3.75 5.75 6.54822 5.75 10V11ZM19.75 14.75V15C19.75 15.1381 19.8619 15.25 20 15.25H21C21.1381 15.25 21.25 15.1381 21.25 15V11C21.25 10.8619 21.1381 10.75 21 10.75H19.75V11V14.75ZM9 10.25C9.41421 10.25 9.75 10.5858 9.75 11V13C9.75 13.4142 9.41421 13.75 9 13.75C8.58579 13.75 8.25 13.4142 8.25 13V11C8.25 10.5858 8.58579 10.25 9 10.25ZM15.75 11C15.75 10.5858 15.4142 10.25 15 10.25C14.5858 10.25 14.25 10.5858 14.25 11V13C14.25 13.4142 14.5858 13.75 15 13.75C15.4142 13.75 15.75 13.4142 15.75 13V11Z" fill="black"/>
</svg>
