<svg width="24" height="24" viewBox="0 0 24 24" fill="none" xmlns="http://www.w3.org/2000/svg">
<path fill-rule="evenodd" clip-rule="evenodd" d="M13.375 1.92782C12.5241 1.43658 11.4758 1.43658 10.625 1.92782L3.96472 5.77312C3.11387 6.26436 2.58972 7.17221 2.58972 8.15469V15.8453C2.58972 16.8278 3.11387 17.7356 3.96472 18.2269L10.625 22.0722C11.4758 22.5634 12.5241 22.5634 13.375 22.0722L20.0352 18.2269C20.8861 17.7356 21.4102 16.8278 21.4102 15.8453V8.15469C21.4102 7.17221 20.8861 6.26436 20.0352 5.77312L13.375 1.92782ZM11.375 3.22686C11.7617 3.00356 12.2382 3.00356 12.625 3.22686L19.2852 7.07215C19.672 7.29545 19.9102 7.7081 19.9102 8.15469V15.8453C19.9102 16.2919 19.672 16.7045 19.2852 16.9278L12.625 20.7731C12.2382 20.9964 11.7617 20.9964 11.375 20.7731L4.71472 16.9278C4.32797 16.7045 4.08972 16.2919 4.08972 15.8453V8.15469C4.08972 7.7081 4.32797 7.29545 4.71472 7.07215L11.375 3.22686ZM8.74998 12C8.74998 10.2051 10.2051 8.74999 12 8.74999C13.7949 8.74999 15.25 10.2051 15.25 12C15.25 13.7949 13.7949 15.25 12 15.25C10.2051 15.25 8.74998 13.7949 8.74998 12ZM12 7.24999C9.37662 7.24999 7.24998 9.37663 7.24998 12C7.24998 14.6233 9.37662 16.75 12 16.75C14.6233 16.75 16.75 14.6233 16.75 12C16.75 9.37663 14.6233 7.24999 12 7.24999Z" fill="black"/>
</svg>
