<svg width="24" height="24" viewBox="0 0 24 24" fill="none" xmlns="http://www.w3.org/2000/svg">
<path fill-rule="evenodd" clip-rule="evenodd" d="M5.5 4.25C4.80964 4.25 4.25 4.80965 4.25 5.5V18.5C4.25 19.1904 4.80964 19.75 5.5 19.75H18.5C19.1904 19.75 19.75 19.1904 19.75 18.5V14C19.75 13.5858 20.0858 13.25 20.5 13.25C20.9142 13.25 21.25 13.5858 21.25 14V18.5C21.25 20.0188 20.0188 21.25 18.5 21.25H5.5C3.98122 21.25 2.75 20.0188 2.75 18.5V5.5C2.75 3.98122 3.98122 2.75 5.5 2.75H10C10.4142 2.75 10.75 3.08579 10.75 3.5C10.75 3.91421 10.4142 4.25 10 4.25H5.5ZM13.75 3.5C13.75 3.08579 14.0858 2.75 14.5 2.75H20.5C20.7071 2.75 20.8946 2.83395 21.0303 2.96967C21.1022 3.04158 21.1565 3.12445 21.1931 3.21291C21.2251 3.29009 21.2446 3.37376 21.249 3.46141C21.2497 3.47419 21.25 3.48706 21.25 3.5V9.5C21.25 9.91422 20.9142 10.25 20.5 10.25C20.0858 10.25 19.75 9.91422 19.75 9.5V5.31066L12.0303 13.0303C11.7374 13.3232 11.2626 13.3232 10.9697 13.0303C10.6768 12.7374 10.6768 12.2626 10.9697 11.9697L18.6893 4.25H14.5C14.0858 4.25 13.75 3.91421 13.75 3.5Z" fill="black"/>
</svg>
