<svg width="24" height="24" viewBox="0 0 24 24" fill="none" xmlns="http://www.w3.org/2000/svg">
<path fill-rule="evenodd" clip-rule="evenodd" d="M0.25 3C0.25 2.58579 0.585786 2.25 1 2.25H1.87999C2.87644 2.25 3.7542 2.90541 4.03728 3.8608L4.59704 5.75H18.984C20.4911 5.75 21.5722 7.2029 21.1391 8.64653L19.146 15.2902C18.797 16.4534 17.7264 17.25 16.5119 17.25H8.49335C7.27547 17.25 6.20264 16.4489 5.85666 15.2812L3.32288 6.72976C3.3194 6.71893 3.31616 6.708 3.31317 6.69697L2.59908 4.28693C2.50472 3.96847 2.21214 3.75 1.87999 3.75H1C0.585786 3.75 0.25 3.41421 0.25 3ZM5.04149 7.25L7.29486 14.8551C7.45212 15.3859 7.93977 15.75 8.49335 15.75H16.5119C17.0639 15.75 17.5506 15.3879 17.7092 14.8592L19.7023 8.21551C19.8467 7.7343 19.4864 7.25 18.984 7.25H5.04149ZM18.5 20.25C18.5 20.9404 17.9404 21.5 17.25 21.5C16.5596 21.5 16 20.9404 16 20.25C16 19.5596 16.5596 19 17.25 19C17.9404 19 18.5 19.5596 18.5 20.25ZM8 21.5C8.69036 21.5 9.25 20.9404 9.25 20.25C9.25 19.5596 8.69036 19 8 19C7.30964 19 6.75 19.5596 6.75 20.25C6.75 20.9404 7.30964 21.5 8 21.5Z" fill="black"/>
</svg>
