<svg width="24" height="24" viewBox="0 0 24 24" fill="none" xmlns="http://www.w3.org/2000/svg">
<path fill-rule="evenodd" clip-rule="evenodd" d="M3.5 2.75C3.08579 2.75 2.75 3.08579 2.75 3.5C2.75 3.91421 3.08579 4.25 3.5 4.25H4.25693C4.88128 4.25 5.40989 4.7107 5.4952 5.3292L7.01887 16.3758C7.20655 17.7365 8.36949 18.75 9.74307 18.75H18C18.4142 18.75 18.75 18.4142 18.75 18C18.75 17.5858 18.4142 17.25 18 17.25H9.74307C9.11872 17.25 8.59011 16.7893 8.5048 16.1708L8.37779 15.25H16.9798C18.2152 15.25 19.2989 14.4263 19.6295 13.236L21.0184 8.23602C21.5051 6.48373 20.1874 4.75 18.3687 4.75H6.90291C6.57278 3.58182 5.50129 2.75 4.25693 2.75H3.5ZM7.13641 6.25L8.17089 13.75H16.9798C17.5413 13.75 18.0339 13.3756 18.1842 12.8346L19.5731 7.83455C19.7944 7.03806 19.1954 6.25 18.3687 6.25H7.13641ZM18.5 20.5C18.5 21.0523 18.0523 21.5 17.5 21.5C16.9477 21.5 16.5 21.0523 16.5 20.5C16.5 19.9477 16.9477 19.5 17.5 19.5C18.0523 19.5 18.5 19.9477 18.5 20.5ZM9 21.5C9.55228 21.5 10 21.0523 10 20.5C10 19.9477 9.55228 19.5 9 19.5C8.44772 19.5 8 19.9477 8 20.5C8 21.0523 8.44772 21.5 9 21.5Z" fill="black"/>
</svg>
