<svg width="24" height="24" viewBox="0 0 24 24" fill="none" xmlns="http://www.w3.org/2000/svg">
<path d="M11.1156 2.17634C11.4908 1.46519 12.5092 1.46519 12.8844 2.17634L15.2855 6.72719C15.4302 7.00144 15.6939 7.19304 15.9995 7.24591L21.0695 8.12316C21.8618 8.26025 22.1766 9.22888 21.6162 9.80548L18.03 13.4953C17.8139 13.7177 17.7132 14.0277 17.7573 14.3346L18.4897 19.4276C18.6042 20.2235 17.7802 20.8222 17.0587 20.4674L12.4412 18.197C12.163 18.0601 11.837 18.0601 11.5588 18.197L6.94133 20.4674C6.21978 20.8222 5.39581 20.2235 5.51026 19.4276L6.24269 14.3346C6.28683 14.0277 6.18609 13.7177 5.96998 13.4953L2.38384 9.80548C1.82344 9.22888 2.13817 8.26025 2.93045 8.12316L8.00054 7.24591C8.30607 7.19304 8.5698 7.00144 8.71449 6.72719L11.1156 2.17634Z" stroke="black" stroke-width="1.5" stroke-linejoin="round"/>
</svg>
