<svg width="24" height="24" viewBox="0 0 24 24" fill="none" xmlns="http://www.w3.org/2000/svg">
<g clip-path="url(#clip0_826_512)">
<path fill-rule="evenodd" clip-rule="evenodd" d="M13.5052 3.5052C12.8019 2.80194 11.8481 2.40685 10.8536 2.40685L4.11091 2.40685C3.42056 2.40685 2.86091 2.9665 2.86091 3.65685L2.86091 10.3995C2.86091 11.3941 3.256 12.3479 3.95926 13.0511L11.6933 20.7852C12.7673 21.8592 14.5085 21.8592 15.5824 20.7852L21.2393 15.1284C22.3132 14.0544 22.3132 12.3132 21.2393 11.2393L13.5052 3.5052ZM10.8536 3.90685C11.4503 3.90685 12.0226 4.14391 12.4445 4.56586L20.1786 12.2999C20.6668 12.7881 20.6668 13.5795 20.1786 14.0677L14.5218 19.7246C14.0336 20.2127 13.2422 20.2127 12.754 19.7246L5.01992 11.9905C4.59797 11.5685 4.36091 10.9962 4.36091 10.3995L4.36091 3.90685L10.8536 3.90685ZM7.14645 8.1066C7.53697 8.49713 8.17014 8.49713 8.56066 8.1066C8.95118 7.71608 8.95118 7.08291 8.56066 6.69239C8.17014 6.30186 7.53697 6.30186 7.14645 6.69239C6.75592 7.08291 6.75592 7.71608 7.14645 8.1066Z" fill="black"/>
</g>
<defs>
<clipPath id="clip0_826_512">
<rect width="24" height="24" fill="white"/>
</clipPath>
</defs>
</svg>
