<svg width="24" height="24" viewBox="0 0 24 24" fill="none" xmlns="http://www.w3.org/2000/svg">
<path fill-rule="evenodd" clip-rule="evenodd" d="M7.75 7C7.75 4.65279 9.65279 2.75 12 2.75C14.1415 2.75 15.913 4.33382 16.2071 6.39396C16.3536 7.41978 17.8539 7.27367 17.6878 6.15115C17.2774 3.378 14.8872 1.25 12 1.25C8.82436 1.25 6.25 3.82436 6.25 7V8.75H6C4.48122 8.75 3.25 9.98122 3.25 11.5V19C3.25 20.5188 4.48122 21.75 6 21.75H18C19.5188 21.75 20.75 20.5188 20.75 19V11.5C20.75 9.98122 19.5188 8.75 18 8.75H7.75V7ZM7 10.25H6C5.30964 10.25 4.75 10.8096 4.75 11.5V19C4.75 19.6904 5.30964 20.25 6 20.25H18C18.6904 20.25 19.25 19.6904 19.25 19V11.5C19.25 10.8096 18.6904 10.25 18 10.25H7ZM8.25 16C8.25 15.5858 8.58579 15.25 9 15.25H15C15.4142 15.25 15.75 15.5858 15.75 16C15.75 16.4142 15.4142 16.75 15 16.75H9C8.58579 16.75 8.25 16.4142 8.25 16Z" fill="black"/>
</svg>
