<svg width="24" height="24" viewBox="0 0 24 24" fill="none" xmlns="http://www.w3.org/2000/svg">
<path fill-rule="evenodd" clip-rule="evenodd" d="M12.2871 2.30691C12.1987 2.27024 12.1017 2.25 12 2.25C11.8983 2.25 11.8013 2.27024 11.7129 2.30691C11.6245 2.34351 11.5416 2.39776 11.4697 2.46967L6.46967 7.46967C6.17678 7.76256 6.17678 8.23744 6.46967 8.53033C6.76256 8.82322 7.23744 8.82322 7.53033 8.53033L11.25 4.81066V15C11.25 15.4142 11.5858 15.75 12 15.75C12.4142 15.75 12.75 15.4142 12.75 15V4.81066L16.4697 8.53033C16.7626 8.82322 17.2374 8.82322 17.5303 8.53033C17.8232 8.23744 17.8232 7.76256 17.5303 7.46967L12.5303 2.46967C12.4584 2.39776 12.3755 2.34351 12.2871 2.30691ZM3 14.25C3.41421 14.25 3.75 14.5858 3.75 15V19C3.75 19.6904 4.30964 20.25 5 20.25H19C19.6904 20.25 20.25 19.6904 20.25 19V15C20.25 14.5858 20.5858 14.25 21 14.25C21.4142 14.25 21.75 14.5858 21.75 15V19C21.75 20.5188 20.5188 21.75 19 21.75H5C3.48122 21.75 2.25 20.5188 2.25 19V15C2.25 14.5858 2.58579 14.25 3 14.25Z" fill="black"/>
</svg>
