<svg width="24" height="24" viewBox="0 0 24 24" fill="none" xmlns="http://www.w3.org/2000/svg">
<path fill-rule="evenodd" clip-rule="evenodd" d="M4.25 5C4.25 5.41421 4.58579 5.75 5 5.75H19C19.4142 5.75 19.75 5.41421 19.75 5C19.75 4.58579 19.4142 4.25 19 4.25H5C4.58579 4.25 4.25 4.58579 4.25 5ZM12.2871 6.30691C12.3755 6.34351 12.4584 6.39776 12.5303 6.46967L18.5303 12.4697C18.8232 12.7626 18.8232 13.2374 18.5303 13.5303C18.2374 13.8232 17.7626 13.8232 17.4697 13.5303L12.75 8.81066V20C12.75 20.4142 12.4142 20.75 12 20.75C11.5858 20.75 11.25 20.4142 11.25 20V8.81066L6.53033 13.5303C6.23744 13.8232 5.76256 13.8232 5.46967 13.5303C5.17678 13.2374 5.17678 12.7626 5.46967 12.4697L11.4697 6.46967C11.6155 6.3238 11.8066 6.25057 11.9978 6.25C11.9985 6.25 11.9992 6.25 12 6.25C12.0008 6.25 12.0015 6.25 12.0022 6.25C12.1031 6.2503 12.1993 6.27051 12.2871 6.30691Z" fill="black"/>
</svg>
