<svg width="24" height="24" viewBox="0 0 24 24" fill="none" xmlns="http://www.w3.org/2000/svg">
<path fill-rule="evenodd" clip-rule="evenodd" d="M2.75 12C2.75 6.89137 6.89137 2.75 12 2.75C17.1086 2.75 21.25 6.89137 21.25 12C21.25 17.1086 17.1086 21.25 12 21.25C6.89137 21.25 2.75 17.1086 2.75 12ZM12 1.25C6.06294 1.25 1.25 6.06294 1.25 12C1.25 17.9371 6.06294 22.75 12 22.75C17.9371 22.75 22.75 17.9371 22.75 12C22.75 6.06294 17.9371 1.25 12 1.25ZM7.94454 13.2753C7.82042 12.8801 7.39945 12.6603 7.00427 12.7845C6.60909 12.9086 6.38935 13.3296 6.51347 13.7247C7.24596 16.0569 9.42433 17.75 12.0001 17.75C14.5759 17.75 16.7543 16.0569 17.4867 13.7247C17.6109 13.3296 17.3911 12.9086 16.9959 12.7845C16.6008 12.6603 16.1798 12.8801 16.0557 13.2753C15.5139 15.0002 13.902 16.25 12.0001 16.25C10.0982 16.25 8.48632 15.0002 7.94454 13.2753ZM16.5 9.25C16.5 9.94036 15.9404 10.5 15.25 10.5C14.5596 10.5 14 9.94036 14 9.25C14 8.55964 14.5596 8 15.25 8C15.9404 8 16.5 8.55964 16.5 9.25ZM8.75 10.5C9.44036 10.5 10 9.94036 10 9.25C10 8.55964 9.44036 8 8.75 8C8.05964 8 7.5 8.55964 7.5 9.25C7.5 9.94036 8.05964 10.5 8.75 10.5Z" fill="black"/>
</svg>
